<svg viewBox="0 0 30 30" xmlns="http://www.w3.org/2000/svg" xmlns:xlink="http://www.w3.org/1999/xlink" width="30.000000" height="30.000000" fill="none">
	<rect id="close" width="30.000000" height="30.000000" x="0.000000" y="0.000000" />
	<path id="close" d="M21.7929 23.2071C22.1834 23.5976 22.8166 23.5976 23.2071 23.2071C23.5976 22.8166 23.5976 22.1834 23.2071 21.7929L21.7929 23.2071ZM8.20711 6.79289C7.81658 6.40237 7.18342 6.40237 6.79289 6.79289C6.40237 7.18342 6.40237 7.81658 6.79289 8.20711L8.20711 6.79289ZM23.2071 8.20711C23.5976 7.81658 23.5976 7.18342 23.2071 6.79289C22.8166 6.40237 22.1834 6.40237 21.7929 6.79289L23.2071 8.20711ZM6.79289 21.7929C6.40237 22.1834 6.40237 22.8166 6.79289 23.2071C7.18342 23.5976 7.81658 23.5976 8.20711 23.2071L6.79289 21.7929ZM23.2071 21.7929L8.20711 6.79289L6.79289 8.20711L21.7929 23.2071L23.2071 21.7929ZM21.7929 6.79289L6.79289 21.7929L8.20711 23.2071L23.2071 8.20711L21.7929 6.79289Z" fill-rule="nonzero" stroke="rgb(31.5562,35.0625,33.3595)" stroke-linecap="round" stroke-linejoin="round" stroke-width="2" />
</svg>
